PathFileType	4	(X/Y/Z)	C:/Users/opensim2020/Desktop/walking_exp_matlab/subject02_walking13_straight_03.trc	
DataRate	CameraRate	NumFrames	NumMarkers	Units	OrigDataRate	OrigDataStartFrame	OrigNumFrames	
100.00	100.00	4	41	mm	100.00	1376	129	
Frame#	Time	LFHD			RFHD			LBHD			RBHD			C7			T10			CLAV			STRN			RBAK			LSHO			LUPA			LELB			LFRM			LWRA			LWRB			LFIN			RSHO			RUPA			RELB			RFRM			RWRA			RWRB			RFIN			LASI			RASI			LPSI			RPSI			LTHI			LKNE			LTIB			LANK			LHEE			LTOE			RTHI			RKNE			RTIB			RANK			RHEE			RTOE			*39			*40			
		X1	Y1	Z1	X2	Y2	Z2	X3	Y3	Z3	X4	Y4	Z4	X5	Y5	Z5	X6	Y6	Z6	X7	Y7	Z7	X8	Y8	Z8	X9	Y9	Z9	X10	Y10	Z10	X11	Y11	Z11	X12	Y12	Z12	X13	Y13	Z13	X14	Y14	Z14	X15	Y15	Z15	X16	Y16	Z16	X17	Y17	Z17	X18	Y18	Z18	X19	Y19	Z19	X20	Y20	Z20	X21	Y21	Z21	X22	Y22	Z22	X23	Y23	Z23	X24	Y24	Z24	X25	Y25	Z25	X26	Y26	Z26	X27	Y27	Z27	X28	Y28	Z28	X29	Y29	Z29	X30	Y30	Z30	X31	Y31	Z31	X32	Y32	Z32	X33	Y33	Z33	X34	Y34	Z34	X35	Y35	Z35	X36	Y36	Z36	X37	Y37	Z37	X38	Y38	Z38	X39	Y39	Z39	X40	Y40	Z40	X41	Y41	Z41	

65	0.640	-1072.71973	177.36800	1735.24524	-936.99243	134.65082	1704.26855	-1125.93823	53.18888	1668.03516	-996.65112	-0.58207	1636.02759	-1071.86707	-23.93007	1517.92993	-1082.23352	-69.75437	1241.07715	-1069.48401	117.75881	1454.99841	-1067.05762	173.56258	1284.40161	-1024.30676	-84.04673	1336.99585	-1241.26697	65.07036	1507.70288	-1352.34058	103.82988	1326.99036	-1389.69885	148.78362	1196.39587	-1410.14844	220.20160	1084.95667	-1376.21350	323.02097	996.94421	-1417.04944	287.11426	982.05609	-1422.91626	336.29141	938.60559	-880.42352	30.25504	1474.80505	-808.50055	-22.25110	1286.87329	-792.84619	-20.67904	1139.84387	-776.94995	-0.45810	1019.95258	-801.07953	40.87114	891.19885	-768.89783	-6.54486	889.71375	-770.57916	25.50544	823.44965	-1214.44983	157.58144	984.04736	-962.21307	158.49136	973.13770	-1131.87976	-50.21851	1028.30957	-1016.50146	-57.25608	1024.43921	-1262.35352	59.10785	672.93811	-1235.03772	-3.96328	476.83591	-1241.42786	-85.06025	299.00198	-1207.63245	-109.92980	75.16497	-1160.04382	-151.86954	48.64405	-1211.18518	45.28355	33.75027	-879.25726	167.29973	680.69769	-911.61371	235.60051	484.59689	-922.88947	196.23820	299.91629	-968.99152	187.02223	110.20525	-1035.49097	169.51422	56.13587	-927.31281	329.81033	58.50671	-1009.58386	55.19211	1797.64941	-3356.83203	2846.01270	1034.28259 
66	0.650	-1072.24683	190.24722	1733.86499	-936.50641	147.34822	1702.76318	-1125.31458	66.34586	1666.07568	-995.96399	12.53760	1633.88818	-1071.48889	-10.19863	1515.98547	-1081.61426	-56.17313	1238.98206	-1068.69666	131.62489	1453.06738	-1066.48035	187.30830	1282.34204	-1024.41748	-70.33769	1335.00049	-1240.41492	79.43214	1506.25061	-1352.27124	120.03049	1326.80762	-1390.68506	167.93884	1197.66345	-1411.48193	242.78877	1088.43921	-1378.71155	349.05225	1004.54382	-1418.62048	312.89566	987.70490	-1425.18542	363.46854	946.21765	-880.00031	43.15883	1472.77026	-808.75122	-11.07651	1285.24109	-792.97461	-11.85363	1138.21240	-776.60413	6.53692	1018.24762	-800.16895	45.45409	888.66742	-768.46539	-2.30457	888.14374	-769.50555	28.74027	821.46155	-1214.20007	169.69547	981.18390	-961.47815	172.42424	970.53119	-1130.32849	-37.34139	1026.44360	-1015.03412	-43.77076	1022.51733	-1262.05054	66.72257	671.91302	-1234.29810	1.28038	476.51538	-1240.27478	-82.37894	300.07147	-1207.11987	-109.55692	76.09499	-1159.42505	-151.59816	49.96922	-1211.02344	45.21548	33.48334	-879.38855	181.33742	679.03522	-913.17371	249.30260	482.27695	-922.67133	222.05630	294.96701	-966.73914	227.08934	104.54008	-1033.19031	213.95100	50.08311	-924.11908	373.48175	61.24110	-1008.92310	67.86641	1795.70618	-3360.46924	2845.32373	1034.15771 
67	0.660	-1071.54150	203.03374	1732.31677	-935.74701	160.22940	1701.13306	-1124.66602	79.48069	1663.95471	-995.30591	25.75372	1631.62744	-1070.92993	3.59876	1513.89880	-1080.79053	-42.39380	1237.23938	-1067.84900	145.53891	1451.03857	-1065.77051	201.18117	1280.29114	-1024.35803	-56.62711	1332.89893	-1239.48926	93.82147	1504.60657	-1352.00574	136.18240	1326.51599	-1391.39709	186.66600	1198.74182	-1412.87048	264.80774	1091.91760	-1380.80847	374.46445	1011.99780	-1419.77820	338.02969	993.35413	-1426.95007	389.90469	953.73169	-879.35889	56.59092	1470.21851	-808.73370	-0.03012	1283.54126	-792.83472	-2.29978	1136.61877	-776.25244	13.40893	1016.43402	-799.04565	50.06390	886.21173	-767.85358	2.22041	886.51666	-768.15204	32.37489	819.65686	-1213.49353	182.79323	978.63953	-960.30988	186.41302	967.82288	-1128.71375	-24.38306	1024.29919	-1013.50562	-30.29905	1020.27008	-1261.69885	74.60582	670.91583	-1233.51208	6.96629	476.25165	-1239.48010	-79.17112	300.77969	-1206.63879	-109.08273	77.14490	-1158.64575	-151.04895	51.21939	-1211.11304	45.41206	33.38147	-879.47595	194.64186	676.63275	-914.81750	262.23752	479.74237	-922.28796	247.95253	291.15079	-964.34479	266.23236	100.68463	-1030.71631	256.88687	45.96455	-920.63232	415.38925	64.97107	-1008.43170	80.37675	1793.71252	-3356.86572	2846.06104	1034.23865 
68	0.670	-1070.58203	215.82797	1730.72217	-934.66260	173.18863	1699.58032	-1123.88855	92.60882	1661.73071	-994.69794	38.81706	1629.07678	-1070.32214	17.47640	1511.71484	-1079.88196	-28.61257	1235.12317	-1066.87280	159.49150	1448.96106	-1064.88623	215.09984	1278.14270	-1024.12524	-42.81877	1330.70593	-1238.42773	108.21095	1502.81177	-1351.65613	152.17099	1326.16272	-1391.94214	204.88847	1199.59656	-1413.83228	286.42725	1095.32385	-1382.53125	398.73230	1019.27081	-1420.79272	362.49533	998.98755	-1428.40540	415.81876	961.07990	-878.62494	69.91791	1467.94873	-808.58533	10.82930	1281.73206	-792.76208	6.99423	1135.15845	-775.76385	20.70574	1014.91724	-797.67303	55.67060	883.92877	-767.05023	7.29471	885.22852	-766.81982	36.33285	817.74622	-1212.70422	195.62576	976.13416	-959.03223	200.50652	965.19019	-1126.91614	-11.33603	1021.87463	-1012.13403	-16.81311	1017.79828	-1261.63501	82.78171	669.97119	-1232.72229	13.17955	476.07870	-1238.55005	-75.59105	301.92975	-1206.14856	-108.49740	78.40121	-1158.14783	-150.53865	53.12506	-1211.23901	45.56469	33.29080	-879.43298	207.35114	673.52350	-916.32495	275.01434	476.99603	-922.09424	272.77438	288.14304	-962.04755	303.61710	98.35947	-1028.27747	298.06754	43.28494	-917.24860	455.04407	70.02508	-1007.72083	92.88897	1791.58350	-3356.95728	2845.97632	1034.38550 
